<?xml version="1.0" standalone="no"?>
<!DOCTYPE svg PUBLIC "-//W3C//DTD SVG 20010904//EN"
 "http://www.w3.org/TR/2001/REC-SVG-20010904/DTD/svg10.dtd">
<svg version="1.0" xmlns="http://www.w3.org/2000/svg"
 width="418.000000pt" height="114.000000pt" viewBox="0 0 418.000000 114.000000"
 preserveAspectRatio="xMidYMid meet">

<g transform="translate(0.000000,114.000000) scale(0.100000,-0.100000)"
fill="#000000" stroke="none">
<path d="M493 1065 c-184 -50 -330 -197 -378 -382 -42 -160 13 -334 145 -464
95 -94 223 -149 347 -149 56 0 208 43 234 66 8 8 20 14 26 14 6 0 40 28 76 62
205 199 208 522 7 718 -124 122 -306 175 -457 135z m154 -302 c44 -83 48 -111
24 -137 -39 -42 -64 -117 -70 -211 l-6 -90 -29 48 c-16 27 -35 65 -42 85 -17
49 -17 168 0 225 18 60 63 137 80 137 7 0 27 -26 43 -57z m-197 -72 l45 -27 6
-99 c5 -101 28 -175 66 -217 44 -49 -56 -19 -113 34 -64 59 -106 150 -112 243
-2 41 -2 81 2 90 7 20 46 12 106 -24z m408 -58 c-10 -161 -87 -267 -227 -308
l-24 -7 5 88 c3 63 11 104 27 141 36 81 143 171 205 173 17 0 18 -7 14 -87z"/>
<path d="M2008 804 c-31 -16 -35 -29 -15 -37 9 -3 14 -22 14 -51 1 -45 1 -46
-31 -46 -49 0 -106 -53 -113 -106 -5 -36 -1 -45 27 -77 35 -40 63 -46 98 -21
17 12 26 13 36 5 9 -8 22 -8 40 -1 31 11 34 26 6 33 -19 5 -20 14 -20 161 0
86 -3 156 -7 156 -5 -1 -20 -8 -35 -16z m-17 -181 c18 -22 18 -95 0 -117 -19
-23 -47 -20 -65 6 -45 64 17 169 65 111z"/>
<path d="M2923 773 c-33 -7 -65 -51 -61 -87 2 -23 17 -41 58 -74 69 -56 82
-84 52 -114 -18 -19 -25 -20 -48 -10 -14 7 -31 26 -37 42 -16 42 -27 37 -27
-10 0 -34 4 -42 30 -55 46 -24 78 -19 116 19 57 57 46 89 -60 169 -29 22 -36
35 -34 54 6 53 60 56 83 5 5 -12 15 -22 22 -22 17 0 17 54 0 69 -17 13 -64 21
-94 14z"/>
<path d="M1620 761 c0 -5 7 -11 15 -15 12 -4 15 -28 15 -130 0 -101 -3 -125
-15 -130 -8 -3 -15 -10 -15 -16 0 -15 199 -13 205 3 19 51 -2 89 -23 42 -11
-23 -17 -26 -55 -23 l-42 3 -3 49 c-3 50 6 66 40 66 9 0 24 -7 33 -16 19 -20
21 -19 28 29 4 28 2 37 -9 37 -8 0 -14 -4 -14 -10 0 -5 -18 -10 -41 -10 l-40
0 3 48 c3 46 3 47 40 50 29 2 39 -1 48 -17 16 -32 30 -25 30 14 l0 35 -100 0
c-55 0 -100 -4 -100 -9z"/>
<path d="M2137 753 c-13 -12 -7 -44 9 -50 21 -8 35 16 23 39 -10 19 -21 23
-32 11z"/>
<path d="M3962 751 c-20 -12 -10 -46 12 -46 24 0 30 16 14 38 -9 11 -18 14
-26 8z"/>
<path d="M2270 657 c-18 -9 -26 -22 -28 -48 -3 -31 2 -40 32 -63 20 -15 36
-33 36 -41 0 -26 -20 -26 -44 -1 -29 32 -36 32 -36 2 0 -28 15 -41 54 -49 41
-7 79 31 70 70 -7 28 -23 45 -35 38 -11 -7 -49 35 -49 55 0 24 47 28 56 5 9
-22 24 -18 24 5 0 10 -9 24 -19 30 -25 13 -30 13 -61 -3z"/>
<path d="M2413 635 c-33 -33 -35 -39 -30 -82 4 -37 12 -54 36 -75 42 -38 81
-37 127 4 34 30 36 34 31 82 -3 40 -11 55 -36 78 -44 40 -84 37 -128 -7z m94
-17 c18 -16 23 -32 23 -68 0 -71 -31 -90 -75 -45 -30 29 -34 94 -9 119 21 21
33 20 61 -6z"/>
<path d="M3140 663 c-8 -3 -27 -17 -42 -31 -22 -21 -28 -35 -28 -70 0 -54 12
-77 50 -97 40 -21 54 -19 87 10 l28 26 -41 -6 c-39 -6 -44 -4 -68 28 -35 45
-35 71 0 63 35 -9 94 3 101 21 7 17 -35 63 -56 62 -9 0 -23 -3 -31 -6z m35
-32 c3 -6 -3 -15 -14 -21 -21 -11 -37 2 -26 20 8 13 32 13 40 1z"/>
<path d="M3595 655 c-29 -10 -43 -11 -52 -3 -10 8 -20 8 -38 -2 -30 -16 -32
-26 -5 -33 19 -5 20 -14 20 -125 0 -94 -3 -122 -15 -132 -27 -23 -16 -31 40
-28 54 3 76 20 35 26 -17 3 -20 11 -20 48 0 38 3 44 20 44 63 0 130 63 130
121 0 28 -30 73 -58 88 -11 6 -31 4 -57 -4z m42 -47 c30 -28 30 -69 -1 -104
-23 -27 -24 -28 -50 -11 -22 15 -26 25 -26 67 0 36 5 52 18 59 25 15 33 13 59
-11z"/>
<path d="M3952 648 c-29 -18 -31 -22 -16 -32 18 -14 22 -109 5 -130 -15 -18
-3 -26 40 -26 40 0 59 14 34 24 -12 4 -15 24 -15 90 0 47 -4 87 -8 90 -4 2
-22 -5 -40 -16z"/>
<path d="M2123 650 c-28 -12 -29 -26 -3 -33 17 -4 20 -14 20 -55 0 -32 -6 -56
-15 -66 -26 -25 -17 -36 30 -36 25 0 45 2 45 5 0 3 -7 17 -16 31 -15 22 -22
102 -12 143 4 18 -19 23 -49 11z"/>
<path d="M2613 648 c-28 -14 -29 -24 -3 -31 17 -4 20 -14 20 -65 0 -34 -4 -64
-10 -67 -23 -14 -7 -25 35 -25 42 0 58 11 35 25 -5 3 -10 33 -10 65 0 50 3 61
21 70 16 9 25 8 40 -6 24 -22 27 -105 4 -124 -25 -21 -17 -30 29 -30 46 0 68
13 41 24 -11 4 -15 22 -15 74 0 94 -30 120 -104 92 -16 -6 -27 -6 -31 0 -8 12
-24 12 -52 -2z"/>
<path d="M3265 644 c-19 -14 -19 -16 -2 -25 13 -8 17 -23 17 -69 0 -32 -5 -62
-10 -65 -20 -12 1 -25 40 -25 40 0 61 14 35 24 -11 4 -15 21 -15 65 0 50 3 62
20 71 14 8 25 7 40 -2 16 -10 20 -23 20 -64 0 -33 -5 -56 -15 -64 -22 -18 -9
-30 35 -30 41 0 62 16 36 26 -12 5 -16 22 -16 74 0 52 -4 71 -18 83 -21 19
-64 22 -92 7 -13 -7 -21 -7 -25 0 -9 14 -27 12 -50 -6z"/>
<path d="M3766 639 c-14 -11 -26 -27 -26 -35 0 -22 38 -17 45 6 3 11 15 20 26
20 15 0 19 -7 19 -35 0 -22 -6 -38 -15 -41 -18 -7 -20 -25 -2 -21 6 1 12 -5
12 -13 0 -8 -8 -16 -17 -18 -11 -2 -18 3 -18 12 0 23 -37 20 -50 -5 -20 -37 2
-49 82 -44 76 4 106 19 76 36 -14 8 -18 23 -18 62 0 31 -6 62 -16 75 -19 28
-63 29 -98 1z"/>
</g>
</svg>
